<?xml version="1.0" standalone="no"?>
<!DOCTYPE svg PUBLIC "-//W3C//DTD SVG 1.1//EN" "http://www.w3.org/Graphics/SVG/1.1/DTD/svg11.dtd" >
<!--
2013-9-30: Created.
-->
<svg>
<metadata>
Created by iconfont
</metadata>
<defs>

<font id="iconfont" horiz-adv-x="1024" >
  <font-face
    font-family="iconfont"
    font-weight="500"
    font-stretch="normal"
    units-per-em="1024"
    ascent="896"
    descent="-128"
  />
    <missing-glyph />
    
    <glyph glyph-name="jingyuan" unicode="&#58881;" d="M798.543872 600.191744c-22.617088 2.968576-54.247424 18.835456-54.247424 18.835456-37.220352 16.905216-132.407296 81.763328-156.224512 84.146176-20.114432 1.030144-129.207296 1.770496-129.207296 1.770496-27.768832-9.930752-90.351616-71.4496-139.799552-84.089856-47.843328-12.229632-68.350976-15.812608-68.350976-15.812608-11.24864-14.06464 7.048192-39.472128 22.493184-53.552128 11.409408-10.400768 50.6112-27.547648 50.6112-27.547648l0-14.877696 182.588416 0 0-18.364416L323.818496 490.69952l0-13.69088 395.908096 0 1.196032 41.82528c0 0 27.795456 8.01792 45.77792 19.390464C799.36512 558.886656 814.09024 598.151936 798.543872 600.191744zM551.222272 601.16864l-25.571328 12.39552-25.12896-13.212672 4.43392 27.196416-20.781056 18.876416 28.2624 4.41344 12.30848 26.160128 13.05088-25.751552 28.437504-3.500032-20.257792-19.535872L551.222272 601.16864zM335.012864 447.08224c10.749952-216.041472 97.439744-296.887296 97.439744-296.887296l180.224 0c83.357696 79.578112 100.365312 293.825536 100.365312 296.887296C713.042944 450.141952 335.012864 447.08224 335.012864 447.08224zM594.24768 181.908224l-141.999104 0.229376c0 0-63.761408 77.457408-65.729536 205.3632l19.310592-2.684928 6.145024-61.079552 90.112 0.321536 13.822976 30.190592 24.406016-1.518592 12.0064-29.94176 80.16384 0.555008 18.42176 59.424768 15.572992 3.972096C666.479616 386.739968 656.53248 259.211008 594.24768 181.908224zM471.877632-20.859136c0 0 11.067392-1.825792 26.276864 45.106176 8.866816 27.401216 7.921664 48.971776 7.921664 48.971776l-23.339008-0.083968 17.897472 43.53024 50.850816 0 19.774464-42.765312-26.834944-0.001024c0 0-3.308544-76.860416 32.739328-93.822976 0 0 27.33568-32.73728 83.038208 136.589312l27.240448 0c0 0 101.223424-83.661824 143.894528-92.845056l0-133.654528L191.299584-109.834496 191.299584 22.800128c0 0 81.375232 18.366464 158.78144 93.86496l32.748544 0C382.829568 116.665088 426.458112-21.101824 471.877632-20.859136z"  horiz-adv-x="1024" />

    
    <glyph glyph-name="weibiaoti1" unicode="&#58920;" d="M849.825792 697.208832l-137.12384 0 0-59.25888c0-10.180608-8.251392-18.432-18.432-18.432l-40.96 0c-10.180608 0-18.432 8.251392-18.432 18.432L634.877952 697.208832l-212.992 0 0-59.25888c0-10.180608-8.251392-18.432-18.432-18.432l-40.96 0c-10.180608 0-18.432 8.251392-18.432 18.432L344.061952 697.208832 196.698112 697.208832c-7.706624 0-13.953024-6.2464-13.953024-13.950976l0-653.12768c0-7.706624 6.2464-13.953024 13.953024-13.953024l653.12768 0c7.706624 0 13.953024 6.2464 13.953024 13.953024l0 653.12768C863.778816 690.962432 857.532416 697.208832 849.825792 697.208832zM730.793984 155.303936 315.731968 155.303936l0 46.419968 415.062016 0L730.793984 155.303936zM730.793984 319.827968 315.731968 319.827968l0 46.41792 415.062016 0L730.793984 319.827968zM730.793984 484.349952 315.731968 484.349952l0 46.422016 415.062016 0L730.793984 484.349952zM702.527488 645.30432c0-7.518208-6.094848-13.613056-13.611008-13.613056l-30.251008 0c-7.518208 0-13.611008 6.094848-13.611008 13.613056L645.054464 779.413504c0 7.518208 6.094848 13.613056 13.611008 13.613056l30.251008 0c7.518208 0 13.611008-6.094848 13.611008-13.613056L702.527488 645.30432zM411.711488 645.30432c0-7.518208-6.094848-13.613056-13.611008-13.613056l-30.251008 0c-7.518208 0-13.611008 6.094848-13.611008 13.613056L354.238464 779.413504c0 7.518208 6.094848 13.613056 13.611008 13.613056l30.251008 0c7.518208 0 13.611008-6.094848 13.611008-13.613056L411.711488 645.30432z"  horiz-adv-x="1024" />

    
    <glyph glyph-name="jiujia" unicode="&#58946;" d="M914.152448-107.52 109.847552-107.52C60.490752-107.52 20.48-67.509248 20.48-18.153472L20.48 786.153472C20.48 835.509248 60.490752 875.52 109.847552 875.52l804.30592 0C963.508224 875.52 1003.52 835.509248 1003.52 786.153472l0-804.306944C1003.52-67.509248 963.508224-107.52 914.152448-107.52zM993.061888 778.76736c0 49.3568-36.938752 86.295552-86.295552 86.295552L117.23264 865.062912c-49.355776 0-86.294528-36.938752-86.294528-86.295552l0-789.535744c0-49.355776 36.938752-86.294528 86.294528-86.294528l789.533696 0c49.3568 0 86.295552 36.938752 86.295552 86.294528L993.061888 778.76736zM902.981632-74.008576 121.018368-74.008576c-37.016576 0-67.02592 30.00832-67.02592 67.02592L53.992448 774.982656c0 37.0176 30.00832 67.024896 67.02592 67.024896l781.963264 0c37.016576 0 67.02592-30.007296 67.02592-67.024896l0-781.965312C970.007552-44.000256 939.999232-74.008576 902.981632-74.008576zM859.208704 474.201088l-46.216192 0c-2.197504 0-4.21888-0.662528-6.03136-1.650688l-20.835328 63.491072c-6.667264 36.118528-31.792128 53.535744-62.6688 53.535744L527.73888 589.577216c-35.446784 0-56.956928-23.397376-62.6688-53.504l-20.8896-63.70304c-1.901568 1.115136-4.059136 1.831936-6.4 1.831936l-46.225408 0c-7.102464 0-12.867584-5.820416-12.867584-13.029376l0-11.298816c0-7.184384 5.76512-13.017088 12.867584-13.017088l17.50016-3.026944c-5.52448-10.924032-8.679424-23.424-8.679424-37.970944l-6.479872-74.942464c0-2.169856 0.159744-4.386816 0.42496-6.610944-0.244736-1.358848-0.42496-2.777088-0.42496-4.228096l0-108.430336c0-12.8256 10.292224-23.22432 22.971392-23.22432l35.05664 0c12.688384 0 22.967296 10.396672 22.967296 23.22432l0 47.254528 301.39904 0 0-47.254528c0-12.8256 10.279936-23.22432 22.969344-23.22432l35.058688 0c12.678144 0 22.966272 10.39872 22.966272 23.22432L857.284608 310.07744c0 1.45408-0.176128 2.868224-0.423936 4.228096 0.254976 2.225152 0.423936 4.442112 0.423936 6.610944l-6.479872 74.940416c0 14.579712-3.165184 27.091968-8.711168 38.055936l17.112064 2.944c7.11168 0 12.867584 5.832704 12.867584 13.017088l0 11.298816C872.075264 468.380672 866.321408 474.201088 859.208704 474.201088zM480.523264 487.544832l15.300608 41.20064 0.214016 0.964608c1.522688 8.333312 4.921344 9.817088 9.942016 16.247808l239.521792 0c5.066752-6.608896 8.22272-8.287232 9.622528-16.15872l15.54432-42.254336 5.690368-22.955008c-1.292288-16.797696-21.236736-30.063616-37.834752-30.063616L512.668672 434.526208c-16.612352 0-36.5568 13.26592-37.844992 30.063616L480.523264 487.544832zM491.246592 291.61984c-19.211264 0-34.778112 15.752192-34.778112 35.187712 0 19.438592 15.566848 35.18464 34.778112 35.18464 19.212288 0 34.779136-15.746048 34.779136-35.18464C526.025728 307.372032 510.459904 291.61984 491.246592 291.61984zM685.4912 317.57824l-0.003072 0c0-5.787648-4.6336-10.46528-10.344448-10.46528l-97.569792 0c-5.7088 0-10.344448 4.677632-10.344448 10.46528l0 29.40928c0 5.778432 4.6336 10.456064 10.344448 10.456064l97.569792 0c5.71392 0 10.348544-4.677632 10.348544-10.456064l0-29.40928L685.4912 317.57824zM759.937024 291.61984c-19.214336 0-34.793472 15.752192-34.793472 35.187712 0 19.438592 15.579136 35.18464 34.793472 35.18464 19.212288 0 34.777088-15.746048 34.777088-35.18464C794.715136 307.372032 779.150336 291.61984 759.937024 291.61984zM338.26816 429.069312c28.672 49.672192-22.468608 184.00256-22.468608 184.00256s-40.09472-4.087808-66.332672-4.087808c-26.277888 0-66.335744 4.087808-66.335744 4.087808s-51.137536-134.330368-22.488064-184.02304c28.627968-49.69472 80.699392-82.117632 80.699392-113.18784l0-96.902144c0-33.214464-57.44128-53.438464-81.93536-60.694528-5.245952-1.668096-3.728384-3.336192 0-3.336192l177.46432 0c3.76832 0 5.26848 1.668096 0 3.336192-24.454144 7.256064-79.177728 27.480064-79.177728 60.694528-0.021504 0.643072-0.039936 1.325056-0.062464 1.968128l-0.079872 0 0 94.953472C257.55136 346.955776 309.619712 379.377664 338.26816 429.069312zM212.732928 394.206208c-7.821312 8.346624-16.490496 18.684928-24.454144 31.097856-3.790848 6.311936-7.902208 12.905472-10.780672 20.525056-1.59744 3.552256-2.813952 7.959552-3.969024 12.367872-0.708608 4.470784-1.499136 6.957056-1.379328 12.389376-0.039936 16.330752 1.824768 31.88736 4.356096 46.292992 2.331648 14.48448 5.348352 27.75552 8.28928 38.987776 5.855232 22.55872 11.222016 37.110784 11.222016 37.110784s-1.273856-15.58016-3.625984-38.60992c-1.23392-11.508736-2.6112-24.9088-4.133888-39.225344-1.374208-14.252032-2.95424-29.574144-2.7136-44.171264-0.423936-2.312192 0.56832-7.534592 1.032192-10.549248 0.8704-3.039232 1.499136-6.03648 2.958336-9.396224 2.41152-6.569984 5.530624-12.98944 8.813568-19.090432 6.62528-12.153856 13.940736-23.13216 20.262912-32.462848 12.80512-18.683904 22.02112-30.923776 22.02112-30.923776S228.51584 377.57952 212.732928 394.206208z"  horiz-adv-x="1024" />

    
    <glyph glyph-name="bofang" unicode="&#58963;" d="M852.727563 503.552893C956.997809 437.526365 956.941389 330.440483 852.727563 264.44968L281.888889-97.019655C177.618644-163.046186 93.090909-120.054114 93.090909-1.137364L93.090909 769.139937C93.090909 888.120794 177.675064 931.013033 281.888889 865.022231L852.727563 503.552893 852.727563 503.552893Z"  horiz-adv-x="1024" />

    
    <glyph glyph-name="duoren" unicode="&#58953;" d="M800 70.4c0 0 0 115.2-19.2 140.8-12.8 19.2-25.6 38.4-51.2 51.2 0 12.8 0 32 0 32s-12.8 12.8-25.6 44.8c-19.2 6.4-19.2 12.8-19.2 25.6 0 0-6.4 44.8 6.4 44.8 0 0 6.4 6.4 6.4 12.8 0 19.2-6.4 44.8 0 57.6 0 12.8-6.4 38.4 19.2 44.8 25.6 6.4 12.8 0 25.6 6.4 6.4 0 6.4 6.4 19.2 6.4l32 6.4c12.8 0 25.6-12.8 32-19.2 6.4 0-6.4 6.4 12.8 0 25.6-6.4 19.2-38.4 19.2-51.2 0-12.8 0-44.8 0-57.6 0-12.8 12.8-6.4 12.8-6.4 12.8 6.4 6.4-44.8 6.4-44.8 0-12.8 6.4-12.8-6.4-25.6C857.6 313.6 832 294.4 832 294.4s0-25.6 0-25.6c0 0-12.8-38.4 57.6-44.8 70.4-12.8 76.8-32 89.6-44.8 38.4-25.6 44.8-102.4 44.8-102.4S889.6 70.4 800 70.4zM633.6 416C620.8 377.6 576 358.4 576 358.4S576 326.4 576 320c0 0-12.8-51.2 64-64 89.6-12.8 96-38.4 108.8-57.6 19.2-12.8 12.8-128 12.8-128l-512 0c0 0 0 102.4 12.8 128 0 6.4 19.2 44.8 108.8 57.6C460.8 275.2 441.6 320 448 320c0 19.2 0 44.8 0 44.8S396.8 377.6 384 416C352 428.8 358.4 435.2 352 448 352 448 345.6 512 364.8 512 364.8 512 384 512 384 524.8c0 25.6 0 64 6.4 83.2 0 12.8 12.8 57.6 44.8 64 32 6.4 19.2 0 32 6.4 12.8 0 6.4 6.4 25.6 6.4l38.4 19.2c19.2 0 32-38.4 44.8-38.4 12.8 0 12.8 6.4 32 0C640 652.8 640 608 640 595.2 640 576 640 531.2 640 518.4c0-12.8 6.4-12.8 6.4-12.8 25.6 0 19.2-57.6 19.2-57.6C665.6 435.2 652.8 435.2 633.6 416zM320 339.2C307.2 313.6 288 294.4 288 294.4s0-19.2 0-32c-25.6-12.8-32-32-44.8-51.2-19.2-51.2-19.2-140.8-19.2-140.8-89.6 0-224 0-224 0s0 76.8 44.8 102.4c12.8 12.8 25.6 32 89.6 44.8C198.4 230.4 192 262.4 192 268.8c0 6.4 0 25.6 0 25.6S166.4 313.6 153.6 345.6C140.8 352 140.8 358.4 140.8 371.2c0 0 0 38.4 12.8 38.4 0 0 6.4 0 6.4 6.4 0 12.8 0 44.8 0 57.6 0 12.8 0 44.8 19.2 51.2 19.2 0 0 0 12.8 0 6.4 0 19.2 19.2 32 19.2l32-6.4c12.8 0 12.8-6.4 19.2-6.4 6.4 0 0 0 25.6-6.4C326.4 524.8 320 499.2 320 486.4c0-12.8 0-38.4 0-57.6 0-12.8 12.8-12.8 12.8-12.8 12.8 0 6.4-44.8 6.4-44.8C332.8 358.4 339.2 352 320 339.2z"  horiz-adv-x="1024" />

    
    <glyph glyph-name="icon-arrow-left2" unicode="&#58980;" d="M747.245 814.936c-28.497 29.315-74.739 29.315-103.307 0l-367.236-378.011c-28.483-29.367-28.483-76.982 0-106.291l367.236-377.997c28.562-29.367 74.806-29.367 103.307 0 28.546 29.325 28.546 76.929 0 106.304l-315.6 324.841 315.599 324.803c28.545 29.367 28.544 76.973 0 106.356v0z"  horiz-adv-x="1024" />

    
    <glyph glyph-name="shanchu" unicode="&#58941;" d="M263.314286 587.893029l497.371429 0 0-56.085943-497.371429 0 0 56.085943ZM294.999771 531.807086l58.514286 0 0-468.728686-58.514286 0 0 468.728686ZM307.492571 121.592686l395.322514 0 0-58.514286-395.322514 0 0 58.514286ZM673.528686 531.807086l58.514286 0 0-468.728686-58.514286 0 0 468.728686ZM412.028343 587.893029 412.028343 704.9216 616.828343 704.9216 616.828343 587.893029 558.314057 587.893029 557.699657 646.407314 471.010743 646.407314 471.010743 587.893029ZM412.028343 531.807086l29.871543 0 0-410.2144-29.871543 0 0 410.2144ZM499.799771 531.807086l29.871543 0 0-410.2144-29.871543 0 0 410.2144ZM586.9568 531.807086l29.871543 0 0-410.2144-29.871543 0 0 410.2144Z"  horiz-adv-x="1024" />

    
    <glyph glyph-name="xinzeng" unicode="&#59100;" d="M966.851 457.866h-376.615v376.617h-149.453v-376.617h-379.61v-149.451h379.61v-379.61h149.451v379.61h376.617v149.451zM966.851 457.866z"  horiz-adv-x="1024" />

    
    <glyph glyph-name="yanjing" unicode="&#58984;" d="M502.054 712.32c69.605-0.133 132.349-14.482 192.58-40.424 68.932-29.689 129.792-71.797 185.902-121.183 47.445-41.758 90.322-87.848 129.929-137.026 13.577-16.859 12.714-30.815 2.157-46.452-29.091-43.085-62.349-82.697-98.383-120.04-48.923-50.701-103.14-94.712-164.84-129.088-52.59-29.3-108.311-49.788-168.13-58.164-74.098-10.375-146.114-1.624-216.238 24.098-74.147 27.196-139.002 69.687-198.604 120.729-57.139 48.933-107.566 104.215-153.463 163.708-12.511 16.217-12.712 25.623-0.805 42.445 53.434 75.496 117.087 140.989 191.974 195.392 49.495 35.958 102.841 64.598 161.175 83.529 45.676 14.823 92.546 22.319 136.749 22.473zM729.829 583.647c62.471-114.537 26.775-243.337-55.2-312.739-85.635-72.502-206.65-80.404-298.895-18.919-55.437 36.951-91.14 88.173-105.728 153.369-14.559 65.065-3.497 126.304 29.599 184.028-89.074-49.493-160.202-118.702-222.228-198.313 28.273-35.352 57.686-68.854 89.381-100.289 28.474-28.243 58.594-54.593 91.232-78.017 59.076-42.4 123.006-73.687 195.211-86.407 46.052-8.116 92.043-8.097 137.882 1.203 67.85 13.766 128.424 43.944 183.977 84.295 65.973 47.922 121.714 106.232 169.908 171.884 2.369 3.228 2.381 5.26-0.301 8.232-18.146 20.096-35.688 40.754-54.262 60.443-41.478 43.972-86.637 83.725-137.453 116.748-7.624 4.955-15.412 9.661-23.122 14.479zM338.953 449.713c1.141-3.841 1.933-9.901 4.648-14.923 4.954-9.165 17.306-12.925 29.093-10.007 11.171 2.767 17.454 11.352 19.1 23.42 1.913 14.034 3.599 28.346 7.818 41.773 16.275 51.814 52.514 80.178 105.998 86.948 15.556 1.969 26.188 13.654 25.942 29.385-0.226 14.399-9.358 23.32-23.712 22.702-5.562-0.239-11.118-1.18-16.623-2.113-32.155-5.451-61.785-16.983-87.005-38.054-42.629-35.615-59.669-83.495-65.258-139.132z"  horiz-adv-x="1024" />

    
    <glyph glyph-name="chakan" unicode="&#59034;" d="M510.19264 882.09408C233.09824 882.09408 7.68 656.67584 7.68 379.60704S233.09824-122.88 510.19264-122.88c277.04832 0 502.46144 225.41312 502.46144 502.48704S787.24096 882.09408 510.19264 882.09408zM509.06624 166.70208c-218.64448 0-312.6784 212.65408-312.6784 212.65408S299.6224 588.58496 511.21152 588.28288c211.64544-0.31232 310.49728-213.7088 310.49728-213.7088S727.6032 166.70208 509.06624 166.70208zM510.5664 509.89056c-75.84256 0-130.62144-57.04192-130.62144-130.5344 0-73.35936 54.77888-130.58048 130.62144-130.58048 75.7504 0 130.49344 57.22112 130.49344 130.58048C641.05984 452.84864 586.32192 509.89056 510.5664 509.89056zM510.5664 301.03552c-43.3664 0-78.3616 36.36736-78.3616 78.32064 0 41.9584 34.99008 78.27456 78.3616 78.40256 43.27424 0.05632 78.32576-36.44416 78.32576-78.40256C588.89728 337.39776 553.84064 301.03552 510.5664 301.03552z"  horiz-adv-x="1024" />

    
    <glyph glyph-name="bumen" unicode="&#58882;" d="M512 682.401204m-119.360482 0a116.642 116.642 0 1 0 238.720963 0 116.642 116.642 0 1 0-238.720963 0ZM213.598796 354.160391 482.159368 354.160391 541.839609 354.160391 810.401204 354.160391 810.401204 264.639518 870.080421 264.639518 870.080421 354.160391 870.080421 413.840632 810.401204 413.840632 541.839609 413.840632 541.839609 503.360482 482.159368 503.360482 482.159368 413.840632 213.598796 413.840632 153.918555 413.840632 153.918555 354.160391 153.918555 264.639518 213.598796 264.639518ZM183.758164 85.598796m-119.360482 0a116.642 116.642 0 1 0 238.720963 0 116.642 116.642 0 1 0-238.720963 0ZM840.240813 85.598796m-119.360482 0a116.642 116.642 0 1 0 238.720963 0 116.642 116.642 0 1 0-238.720963 0ZM512 85.598796m-119.360482 0a116.642 116.642 0 1 0 238.720963 0 116.642 116.642 0 1 0-238.720963 0Z"  horiz-adv-x="1024" />

    
    <glyph glyph-name="zanting" unicode="&#59242;" d="M757.52 822.893h-62.493c-34.526 0-62.498-27.984-62.498-62.511v-749.948c0-34.526 27.974-62.493 62.498-62.493h62.493c34.516 0 62.502 27.968 62.502 62.493v749.953c-0.001 34.524-27.984 62.509-62.502 62.509zM320.054 822.893h-62.502c-34.526 0-62.498-27.984-62.498-62.511v-749.948c0-34.526 27.974-62.493 62.498-62.493h62.502c34.505 0 62.493 27.968 62.493 62.493v749.953c-0.001 34.524-27.984 62.509-62.493 62.509z"  horiz-adv-x="1024" />

    
    <glyph glyph-name="icon_on_the_right" unicode="&#58917;" d="M407.104-43.52c-12.576-13.024-29.856-20.384-47.936-20.48-40.8 1.696-72.576 36-71.136 76.8-0.096 21.12 8.256 41.376 23.168 56.32l312.704 314.88-312.704 314.88c-14.912 14.944-23.264 35.2-23.168 56.32-1.44 40.8 30.336 75.104 71.136 76.8 18.080-0.096 35.36-7.456 47.936-20.48l369.856-371.2c30.72-31.264 30.72-81.376 0-112.64l-369.856-371.2z"  horiz-adv-x="1024" />

    
    <glyph glyph-name="yuyin" unicode="&#58929;" d="M512 288 512 288c88 0 160 72 160 160L672 640c0 88-72 160-160 160l0 0c-88 0-160-72-160-160l0-192C352 360 424 288 512 288zM796.6 403.6c2.7 17.5-9.2 33.8-26.7 36.5-17.5 2.6-33.8-9.3-36.5-26.7C716.6 305.4 621.5 224 512 224c-109.5 0-204.7 81.5-221.4 189.5-2.7 17.5-19.1 29.4-36.5 26.7-17.5-2.7-29.4-19-26.7-36.5 20.2-130.5 124-227.8 252.6-241.8L480 64l-96 0c-17.7 0-32-14.3-32-32s14.3-32 32-32l256 0c17.7 0 32 14.3 32 32s-14.3 32-32 32l-96 0 0 97.9C672.5 175.9 776.4 273.1 796.6 403.6z"  horiz-adv-x="1024" />

    
    <glyph glyph-name="edit" unicode="&#58888;" d="M936.96 563.2c-23.04 56.32-56.32 107.52-99.84 148.48-43.52 43.52-94.72 76.8-148.48 99.84-56.32 23.04-115.2 35.84-176.64 35.84s-120.32-12.8-176.64-35.84c-56.32-23.04-104.96-56.32-148.48-99.84-43.52-43.52-76.8-94.72-99.84-148.48-23.04-56.32-35.84-115.2-35.84-176.64 0-61.44 12.8-120.32 35.84-176.64 23.04-56.32 56.32-107.52 99.84-148.48 43.52-43.52 94.72-76.8 148.48-99.84 56.32-23.04 115.2-35.84 176.64-35.84s120.32 12.8 176.64 35.84c56.32 23.04 107.52 56.32 148.48 99.84 43.52 43.52 76.8 94.72 99.84 148.48 23.04 56.32 35.84 115.2 35.84 176.64 0 61.44-12.8 120.32-35.84 176.64z m-161.28-94.72L537.6 230.39999999999998c-5.12-5.12-10.24-5.12-15.36-5.12s-10.24 0-12.8 5.12c-7.68 7.68-7.68 20.48 0 28.16l238.08 238.08c5.12 5.12 7.68 12.8 7.68 23.04s-5.12 20.48-10.24 28.16l-112.64 112.64c-12.8 12.8-30.72 5.12-40.96-7.68l-227.84-227.84-61.44-61.44-23.04-174.08 158.72 25.6-89.6 92.16c-7.68 7.68-7.68 20.48 0 28.16 7.68 7.68 20.48 7.68 28.16 0l117.76-117.76c5.12-5.12 7.68-12.8 5.12-20.48-2.56-7.68-7.68-12.8-15.36-12.8l-225.28-35.84H256c-5.12 0-10.24 2.56-12.8 5.12-5.12 5.12-7.68 10.24-5.12 17.92l28.16 207.36c0 5.12 2.56 7.68 5.12 10.24l38.4 38.4 256 256c30.72 30.72 71.68 33.28 97.28 7.68l112.64-112.64c15.36-15.36 23.04-35.84 23.04-56.32-2.56-23.04-10.24-40.96-23.04-53.76z"  horiz-adv-x="1024" />

    
    <glyph glyph-name="yuyin1" unicode="&#58983;" d="M636.16512-61.44l-70.80448 70.8096c107.59168 92.06272 176.03072 228.58752 176.03072 381.31712 0 145.49504-62.2848 276.1216-161.1776 367.77472L651.19232 829.44c117.01248-109.82912 190.51008-265.47712 190.51008-438.60992 0-180.44416-79.77984-341.90848-205.53728-452.27008zM445.08672 129.64352l-72.93952 72.92928c66.28352 36.64384 111.19104 107.16672 111.19104 188.25728 0 73.61536-37.04832 138.5216-93.47072 177.29024l71.62368 71.61344C535.72096 582.02624 583.68 492.11904 583.68 390.83008c0-108.65664-54.95808-204.44672-138.59328-261.18656zM253.96736 304.81408c-39.5776 0-71.66976 32.08192-71.66976 71.67488 0 39.59808 32.08704 71.67488 71.66976 71.67488 39.60832 0 71.68-32.0768 71.68-71.67488 0-39.59296-32.07168-71.67488-71.68-71.67488z"  horiz-adv-x="1024" />

    
    <glyph glyph-name="send" unicode="&#58913;" d="M0 371.2l281.6-166.4 582.4 531.2L384 192l384-128 256 832zM384-89.6L512 64l-128 64z"  horiz-adv-x="1024" />

    
    <glyph glyph-name="gerenzhongxin" unicode="&#59169;" d="M512 423.77728c131.90144 0 238.80192 105.7024 238.80192 236.09856S643.85024 896 512 896C380.12416 896 273.22368 790.2976 273.22368 659.87584c0-130.40128 106.90048-236.09856 238.77632-236.09856zM137.5232-128v345.25184C52.224 126.80192 0 5.44768 0-128h137.5232z m760.97536 332.05248V-128H1024c0 127.04768-47.34976 243.1488-125.50144 332.05248z m-386.44736 174.27456h-0.79872c-118.25152 0-227.0976-39.82336-312.448-105.77408V-128h277.49888L436.224-47.20128l27.6736 236.34944h89.6l27.6992-236.34944L541.10208-128h296.09984l0.84992 390.4c-88.24832 72.40192-201.6512 115.92704-325.2736 115.92704h-0.72704z m60.8-55.97696l-8.40192-77.19936c0-15.25248-12.47744-27.55072-27.84768-27.55072H480.82432c-15.40096 0-27.89888 12.29824-27.89888 27.55072l-8.35072 77.19936c0 15.25248 12.49792 27.57632 27.87328 27.57632h72.4992c15.40096 0 27.8528-12.37504 27.904-27.57632z"  horiz-adv-x="1026" />

    
    <glyph glyph-name="delete" unicode="&#58921;" d="M511.999311 896C229.681008 896 0 666.3176149999999 0 383.99931100000003 0 101.68100900000002 229.681008-128 511.999311-128 794.317616-128 1024 101.68100900000002 1024 383.99931100000003 1024 666.3176149999999 794.317616 896 511.999311 896L511.999311 896ZM698.735599 143.63719700000001L511.389396 331.38266799999997 323.789863 144.18102599999997 271.323288 196.39289499999995 459.114196 383.774894 271.780381 571.505223 324.120291 623.8423789999999 511.506422 436.055603 700.208759 624.362805 752.675335 572.149559 563.787131 383.664753 751.076888 195.97159799999997 698.735599 143.63719700000001Z"  horiz-adv-x="1024" />

    
    <glyph glyph-name="jiandu1" unicode="&#58886;" d="M655.36 35.84c90.112-32.768 147.456-94.208 147.456-163.84h-593.92c0 69.632 61.44 131.072 155.648 163.84-172.032 61.44-294.912 225.28-294.912 417.792C69.632 699.392 266.24 896 512 896s442.368-196.608 442.368-442.368c0-192.512-122.88-356.352-299.008-417.792zM520.192 588.8C393.216 588.8 286.72 482.304 286.72 355.328s106.496-233.472 233.472-233.472c131.072 0 233.472 106.496 233.472 233.472S651.264 588.8 520.192 588.8z m0-360.448c-61.44 0-114.688 49.152-114.688 114.688 0 61.44 53.248 114.688 114.688 114.688 61.44 0 114.688-49.152 114.688-114.688 0-61.44-49.152-114.688-114.688-114.688z"  horiz-adv-x="1024" />

    
    <glyph glyph-name="dwcxico" unicode="&#58892;" d="M352 486.4h192c19.2 0 32 12.8 32 32s-12.8 32-32 32h-192c-19.2 0-32-12.8-32-32s12.8-32 32-32zM620.8 339.2c0-35.346 28.654-64 64-64s64 28.654 64 64c0 35.346-28.654 64-64 64-35.346 0-64-28.654-64-64zM512 832c-249.6 0-448-198.4-448-448s198.4-448 448-448 448 198.4 448 448-198.4 448-448 448zM704 128h-384c-32 0-64 32-64 64v384c0 38.4 32 64 64 64h384c32 0 64-25.6 64-64v-102.4c-25.6 12.8-51.2 25.6-83.2 25.6-57.6 0-108.8-32-134.4-76.8h-204.8c-12.8 0-25.6-12.8-25.6-32s12.8-32 25.6-32h179.2v-19.2c0-12.8 0-32 6.4-44.8h-179.2c-12.8 0-25.6-12.8-25.6-32s12.8-32 25.6-32h211.2c32-32 70.4-51.2 115.2-51.2 19.2 0 38.4 6.4 57.6 12.8l19.2-19.2c0-25.6-25.6-44.8-51.2-44.8zM806.4 172.8l-57.6 57.6c-19.2-12.8-38.4-19.2-64-19.2-70.4 0-128 57.6-128 128s57.6 128 128 128 128-57.6 128-128c0-25.6-6.4-44.8-19.2-64l57.6-57.6c12.8-12.8 12.8-32 0-44.8s-32-12.8-44.8 0z"  horiz-adv-x="1024" />

    
    <glyph glyph-name="richscan_icon" unicode="&#58977;" d="M39.78 495.11c0.003-0 0.006-0 0.010-0 15.337 0 27.77 12.433 27.77 27.77 0 0.004-0 0.007-0 0.011l0 305.549h305.55c15.342 0 27.78 12.438 27.78 27.78s-12.438 27.78-27.78 27.78h-333.33c-0.003 0-0.006 0-0.010 0-15.337 0-27.77-12.433-27.77-27.77 0-0.004 0-0.007 0-0.011l-0-333.329c-0-0.003-0-0.006-0-0.010 0-15.337 12.433-27.77 27.77-27.77 0.004 0 0.007 0 0.011 0zM373.11-60.44h-305.55v305.55c0 15.342-12.438 27.78-27.78 27.78s-27.78-12.438-27.78-27.78v-333.33c-0-0.003-0-0.006-0-0.010 0-15.337 12.433-27.77 27.77-27.77 0.004 0 0.007 0 0.011 0l333.329-0c15.342 0 27.78 12.438 27.78 27.78 0 15.342-12.438 27.78-27.78 27.78zM984.22 884h-333.33c-15.342 0-27.78-12.438-27.78-27.78s12.438-27.78 27.78-27.78h305.55v-305.55c0-0 0-0 0-0 0-15.342 12.438-27.78 27.78-27.78 15.342 0 27.78 12.438 27.78 27.78 0 0 0 0 0 0v333.33c0 0.006 0 0.013 0 0.020 0 15.331-12.429 27.76-27.76 27.76-0.007 0-0.014-0-0.021-0zM984.22 272.89c-0.006 0-0.013 0-0.020 0-15.331 0-27.76-12.429-27.76-27.76 0-0.007 0-0.014 0-0.021l-0-305.549h-305.55c-0 0-0 0-0 0-15.342 0-27.78-12.438-27.78-27.78 0-15.342 12.438-27.78 27.78-27.78 0 0 0 0 0 0h333.33c0.006-0 0.013-0 0.020-0 15.331 0 27.76 12.429 27.76 27.76 0 0.007-0 0.014-0 0.021l0 333.329c0 0.006 0 0.013 0 0.020 0 15.331-12.429 27.76-27.76 27.76-0.007 0-0.014-0-0.021-0zM984.22 411.78h-944.44c-15.342-0-27.78-12.438-27.78-27.78 0-15.342 12.438-27.78 27.78-27.78h944.44c15.342 0 27.78 12.438 27.78 27.78s-12.438 27.78-27.78 27.78z"  horiz-adv-x="1024" />

    
    <glyph glyph-name="web-icon-" unicode="&#59109;" d="M768.928 561.984l-94.208 94.208L300.544 281.984l-4.416-98.592 98.592 4.416 374.208 374.176zM862.048 118.528H246.048a44.16 44.16 0 0 1-44-44 44.16 44.16 0 0 1 44-44h616a44.16 44.16 0 0 1 44 44c0 24.192-19.776 44-44 44zM787.712 580.8l-94.208 94.208 26.4 26.4a39.488 39.488 0 0 0 55.648 0l38.56-38.56a39.488 39.488 0 0 0 0-55.648l-26.4-26.4z"  horiz-adv-x="1024" />

    
    <glyph glyph-name="dingwei1" unicode="&#58896;" d="M518.649351 34.244156s316.509091 271.293506 316.509091 553.225974C832.498701 757.693506 691.532468 896 518.649351 896S202.14026 757.693506 202.14026 587.47013c0-292.571429 316.509091-553.225974 316.509091-553.225974zM345.766234 579.490909c0 95.750649 77.132468 172.883117 172.883117 172.883117S691.532468 675.241558 691.532468 579.490909s-77.132468-172.883117-172.883117-172.883117-172.883117 79.792208-172.883117 172.883117zM768.664935 201.807792c-21.277922-26.597403-39.896104-53.194805-61.174026-74.472727 220.758442-13.298701 268.633766-58.514286 279.272727-82.451948-10.638961-26.597403-159.584416-90.431169-454.815584-90.431169-295.231169-2.65974-444.176623 63.833766-452.155844 87.771429 7.979221 21.277922 42.555844 63.833766 244.696104 79.792207-18.618182 21.277922-39.896104 47.875325-61.174026 74.472728C98.41039 177.87013 0 137.974026 0 44.883117c0-135.646753 335.127273-170.223377 534.607792-170.223377 199.480519 0 534.607792 37.236364 534.607792 170.223377 0 98.41039-122.348052 140.966234-300.550649 156.924675z"  horiz-adv-x="1069" />

    
    <glyph glyph-name="xitong" unicode="&#58939;" d="M543.318 427.105l63.45 63.924-85.713 86.39-63.473-63.946c-14.88 8.377-30.663 15.332-47.418 20.096v90.117H288.91v-90.117c-16.348-4.674-31.747-11.448-46.311-19.531l-67.943 68.44-87.43-88.085 67.92-68.462c-8.015-14.677-14.744-30.19-19.373-46.65H46.357v-122.203h89.416c4.742-16.867 11.651-32.786 19.96-47.779l-63.471-63.946 85.758-86.391 63.472 63.969c14.88-8.377 30.664-15.332 47.418-20.119v-90.116h121.254v90.116c16.348 4.674 31.725 11.448 46.29 19.532l67.942-68.463 87.452 88.107-67.943 68.417c8.039 14.677 14.768 30.212 19.397 46.65h89.394V379.259h-89.394c-4.765 16.935-11.652 32.854-19.984 47.847zM349.515 216.344c-55.818 0-101.068 45.634-101.068 101.858 0 56.247 45.25 101.836 101.068 101.836 55.817 0 101.068-45.612 101.068-101.836-0.023-56.224-45.25-101.858-101.068-101.858z m656.895 315.713v81.468h-59.972c-3.161 11.155-7.7 21.677-13.164 31.612l42.54 42.857-57.195 57.601-42.314-42.63c-9.89 5.599-20.413 10.228-31.59 13.412v60.085H763.88v-60.085c-10.883-3.116-21.157-7.632-30.844-13.052L687.74 748.96l-58.302-58.73 45.521-45.86c-5.283-9.71-9.732-19.983-12.78-30.867h-59.95v-81.468h59.95c3.161-11.154 7.7-21.7 13.187-31.634l-42.54-42.835 57.149-57.624 42.337 42.677c9.89-5.6 20.413-10.252 31.567-13.436v-60.085h80.836V429.16c10.884 3.116 21.18 7.632 30.845 13.051l45.317-45.657 58.302 58.753-45.521 45.86c5.26 9.732 9.732 19.984 12.78 30.867h59.972z m-202.113-27.141c-37.234 0-67.378 30.392-67.378 67.875s30.144 67.875 67.378 67.875c37.167 0 67.356-30.392 67.356-67.875s-30.19-67.875-67.356-67.875z"  horiz-adv-x="1024" />

    
    <glyph glyph-name="yjgl1" unicode="&#58880;" d="M1023.4447402000428 621.7753564739228a357.73363303184505 357.73363303184505 0 0 1-48.97543810844421-4.968522863388062L1062.877460050583 700.6407961750031v-82.80871207237243a344.2476431751251 344.2476431751251 0 0 1-39.43271985054017 3.943272371292115zM559.4793602848054 380.6837079334259L151.74503865242008 767.1243609237672A81.38913333892823 81.38913333892823 0 0 0 195.35762720108033 779.5062351036072h788.6543931484222a81.46799852371215 81.46799852371215 0 0 0 42.74506842613219-12.145277853012084l-408.2075142860413-386.4406529903412a43.45485740661621 43.45485740661621 0 0 0-59.07021420478822-0.1577303695678711z m85.96332873344421-75.55309035301208l29.811136407852175 28.23382730484009A348.979568939209 348.979568939209 0 0 1 728.48799741745 69.71728088378904H195.35762720108033a76.7360727596283 76.7360727596283 0 0 0-78.86543970108033 74.6855710029602V700.6407961750031l417.43477025985715-395.4313134098053a81.94119117736817 81.94119117736817 0 0 1 111.51573125839232 0z m619.488026418686-72.79280038833618h-37.61881442070007a204.4980846118927 204.4980846118927 0 0 0-35.568313436508184-85.0169441986084l26.8931153011322-26.893114528656007a34.54306217193603 34.54306217193603 0 1 0-48.817706966400145-48.817706966400145l-26.971980485916138 26.971980485916138a206.23312408447268 206.23312408447268 0 0 0-84.93807824134826-35.25285192489624v-38.01314188957214a34.54306217193603 34.54306217193603 0 1 0-69.00725915908812 0V63.408046016693106a204.57694979667664 204.57694979667664 0 0 0-84.54375154495239 35.64717862129211l-27.287441997528074-27.36630795478821a34.54306217193603 34.54306217193603 0 1 0-48.817706966400145 48.817706966400145l27.1297116279602 27.1297116279602a208.04702874183653 208.04702874183653 0 0 0-35.88377494812012 84.7803470993042h-37.61881442070007a34.54306217193603 34.54306217193603 0 0 0 0 69.00725915908812h37.61881442070007a205.52333510398864 205.52333510398864 0 0 0 35.568312664031986 85.0169441986084l-26.814249343872067 26.893114528656007a34.4641969871521 34.4641969871521 0 0 0 48.817706966400145 48.738841781616216l26.8931153011322-26.971980485916138a205.0501424503327 205.0501424503327 0 0 0 84.93807824134826 35.33171710968018v38.01314111709595a34.54306217193603 34.54306217193603 0 0 0 69.00725915908812 0v-38.01314111709595a204.4980846118927 204.4980846118927 0 0 0 84.62261672973634-35.64717862129211l27.287441997528074 27.287441997528074a34.4641969871521 34.4641969871521 0 0 0 48.817706966400145-48.738841781616216l-27.1297116279602-27.12971085548401a206.86404710769654 206.86404710769654 0 0 0 35.80490976333618-84.78034787178039h37.61881442070007a34.54306217193603 34.54306217193603 0 1 0 0-69.00725915908812zM1023.4447402000428 370.35233551025397a103.55032210350038 103.55032210350038 0 1 1 103.47145691871646-103.55032133102418A103.55032210350038 103.55032210350038 0 0 1 1023.4447402000428 370.43120146751414z"  horiz-adv-x="1539" />

    
    <glyph glyph-name="tongjibaobiao" unicode="&#58972;" d="M508.42934033 861.93001124c-264.22877276 0-478.4683198-214.23954566-478.46831843-478.46831981s214.23954566-478.4683198 478.46831843-478.46831843 478.4683198 214.23954566 478.46831981 478.46831843-214.23954566 478.4683198-478.46831981 478.46831981z m76.76917116-357.42297647h93.37273539v-246.55401024H585.19851149V504.50703477z m-124.43746994 97.83605893h93.37273537v-344.39006917H460.76104155V602.3430937zM336.32357296 442.7346331h93.37273539v-184.96014162H336.32357296V442.7346331z m404.55567473-247.98227464v-30.1720693H275.97943296v60.7012047h465.07834778l-0.17853305-30.5291354z m0 0"  horiz-adv-x="1024" />

    
    <glyph glyph-name="zhifadashuju" unicode="&#58883;" d="M512 603.648c52.736 0 95.744-52.736 95.744-118.272s-43.008-118.272-95.744-118.272-95.744 53.248-95.744 118.272c0 65.536 43.008 118.272 95.744 118.272z m355.84-225.28c19.456 20.992 84.992 95.744 78.848 145.92-7.168 58.368-221.184 178.176-434.688 221.696-207.872-36.864-428.032-162.816-434.688-221.696-6.144-50.176 59.392-124.928 78.848-145.92l4.608-115.712c240.64 28.16 475.136 29.184 702.464 0l4.608 115.712z m-5.12-140.288s44.544-216.576-350.72-216.576-350.72 216.576-350.72 216.576c240.128 29.184 474.112 30.208 701.44 0z"  horiz-adv-x="1024" />

    
    <glyph glyph-name="ditu" unicode="&#59060;" d="M502.091262 896a227.402249 227.402249 0 0 1-227.402249-227.402249c0-100.056989 143.831922-277.430743 202.672254-345.651417a32.40482 32.40482 0 0 1 49.175737 0c58.840332 68.220675 202.672254 245.878681 202.672254 345.651417a227.402249 227.402249 0 0 1-227.117996 227.402249z m0-335.134064A97.498714 97.498714 0 1 0 598.452965 658.36465a97.498714 97.498714 0 0 0-96.361703-97.498714zM1024.832181-25.263359L888.106579 424.140334a28.425281 28.425281 0 0 1-28.425281 28.425281H683.728808a1492.327256 1492.327256 0 0 0-155.77054-213.47386 32.40482 32.40482 0 0 0-49.175737 0 1492.043003 1492.043003 0 0 0-155.77054 213.47386H162.693406a28.425281 28.425281 0 0 1-28.425281-28.425281L1.522062-9.629455a28.425281 28.425281 0 0 1 34.110338-36.668612l318.931653 70.778949a28.425281 28.425281 0 0 0 28.425281-3.979539l191.302142-142.126405a28.425281 28.425281 0 0 1 24.161489-5.685056l401.933474 63.956882a28.425281 28.425281 0 0 1 24.445742 38.089877z"  horiz-adv-x="1027" />

    
    <glyph glyph-name="zhibo" unicode="&#58885;" d="M866.3 172.8c19.6 0 35.5 15.9 35.5 35.5 0 0.7 0.1 1 0.1 1.4V550.9c0 0.4-0.1 0.7-0.1 1.4 0 19.6-15.9 35.5-35.5 35.5-6 0-11.6-1.5-16.5-4.1h-0.2l-108.3-58.5v87c0 49.3-39.9 89.2-89.2 89.2h-446c-49.3 0-89.2-39.9-89.2-89.2v-446c0-49.3 39.9-89.2 89.2-89.2h446c49.3 0 89.2 39.9 89.2 89.2v69.3l108.9-58.8c4.9-2.3 10.3-3.9 16.1-3.9z"  horiz-adv-x="1024" />

    
    <glyph glyph-name="supervisionTel" unicode="&#59320;" d="M587.8 698h-141v-75.5s-2.7-35 70.5-65.1c67.8 29.6 70.5 66.8 70.5 66.8V698z m306.7-52.6l-51.1-59.6s-44.1-48.6-49.4-91.2c-272.1 81.6-588.8 1.7-588.8 1.7s-9.3 41.4-21.1 65.1c-11.8 23.7-40.7 69.3-45.9 80.5-5.2 11.2 7 19.3 7 19.3S480.7 829 517.3 829.6c36.6 0.6 366-165.6 375.5-170.1 9.5-4.4 1.7-14.1 1.7-14.1zM235.2 362.29999999999995c1.7 25 14.8 49.7 20.4 59.2-5.3 5.2-10.4 10.6-15.1 16.3 242.5 92 547 12.8 551.8 0-3-4.5-6.5-8.6-10.5-12.1 7-20.8 12.9-41.9 17.7-63.3 4.8-21.4 60.6-29.6 61.7-110.5 1.1-80.9-100.6-126.2-100.6-126.2s-46.8-169-243.2-189.3C318.6-39 274.2 129.20000000000005 274.2 129.20000000000005s-96.8 34.1-98.9 121.1c-0.4 19.1-7.5 85.8 59.9 112.4v-0.4zM327 186.60000000000002s46.3-156.3 190.3-172.8C647.4 26.5 701 180 701 180s105.6 25.1 74.5 105.4c-18.6-17.2-54.6-9.7-53.2 19.8 1.7 23.9-0.6 47.8-6.6 71-120.8-81.5-279.2-81.1-399.6 1-5.7-22.9-7.7-46.5-5.9-70-2.3-47.3-50.6-30-51.3-23.1-29.6-76.9 67.8-97.1 67.8-97.1l0.3-0.4z m0 0"  horiz-adv-x="1024" />

    
    <glyph glyph-name="shujuguanli" unicode="&#58898;" d="M355.2 470.4c195.2 0 355.2 57.6 355.2 131.2V707.2c0 73.6-160 131.2-355.2 131.2S0 780.8 0 707.2v-105.6c0-70.4 160-131.2 355.2-131.2z m169.6-297.6c-51.2-9.6-108.8-16-172.8-16C160 156.8 0 214.4 0 288v-156.8C0 57.6 160 0 355.2 0c73.6 0 140.8 9.6 195.2 22.4-19.2 35.2-28.8 73.6-28.8 115.2 0 9.6 3.2 22.4 3.2 35.2zM710.4 374.4V524.8c0-73.6-160-131.2-355.2-131.2S0 451.2 0 524.8V368c0-73.6 160-131.2 355.2-131.2 73.6 0 144 9.6 201.6 22.4 32 57.6 86.4 99.2 153.6 115.2z m227.2-201.6h-19.2c-9.6 0-16 6.4-19.2 16l-9.6 25.6c-3.2 6.4-3.2 19.2 3.2 22.4l12.8 12.8c6.4 6.4 6.4 16 0 22.4l-22.4 22.4c-6.4 6.4-16 6.4-22.4 0L848 281.6c-6.4-6.4-16-6.4-25.6-3.2L800 288c-6.4 3.2-16 12.8-16 19.2v19.2c0 9.6-6.4 16-16 16h-28.8c-9.6 0-16-6.4-16-16v-19.2c0-9.6-6.4-16-16-19.2l-25.6-9.6c-6.4-3.2-19.2-3.2-22.4 3.2l-12.8 12.8c-6.4 6.4-16 6.4-22.4 0L608 272c-6.4-6.4-6.4-16 0-22.4l12.8-12.8c6.4-6.4 6.4-16 3.2-22.4l-9.6-25.6c-3.2-6.4-12.8-16-19.2-16H576c-9.6 0-16-6.4-16-16V128c0-9.6 6.4-16 16-16h19.2c9.6 0 16-6.4 19.2-16l9.6-25.6c3.2-6.4 3.2-19.2-3.2-25.6l-12.8-6.4c-6.4-6.4-6.4-16 0-22.4l22.4-22.4c6.4-6.4 16-6.4 22.4 0l12.8 12.8c6.4 6.4 16 6.4 22.4 3.2l25.6-9.6c6.4-3.2 16-12.8 16-19.2v-19.2c0-9.6 6.4-16 16-16h28.8c9.6 0 16 6.4 16 16v19.2c0 9.6 6.4 16 16 19.2l25.6 9.6c6.4 3.2 19.2 3.2 25.6-3.2l12.8-12.8c6.4-6.4 16-6.4 22.4 0l22.4 22.4c6.4 6.4 6.4 16 0 22.4l-12.8 12.8c-6.4 6.4-6.4 16-3.2 25.6l9.6 25.6c3.2 6.4 12.8 16 19.2 16h19.2c9.6 0 16 6.4 16 16V160c-9.6 6.4-16 12.8-25.6 12.8M832 144c0-41.6-35.2-76.8-76.8-76.8-41.6 0-76.8 35.2-76.8 76.8 0 41.6 35.2 76.8 76.8 76.8 44.8 0 76.8-35.2 76.8-76.8"  horiz-adv-x="1024" />

    
    <glyph glyph-name="yonghu" unicode="&#58899;" d="M502.272 833.024c125.952 0 227.84-100.352 227.84-224.256s-101.888-224.256-227.84-224.256-227.84 100.352-227.84 224.256 102.4 224.256 227.84 224.256zM416.768 309.76H606.72c162.816 0 294.4-129.536 294.4-289.792v-18.432c0-62.976-132.096-65.536-294.4-65.536H416.768c-162.816 0-294.4 0-294.4 65.536v18.432c0 160.256 132.096 289.792 294.4 289.792z"  horiz-adv-x="1024" />

    
    <glyph glyph-name="renlianshibie" unicode="&#58887;" d="M843.573754 416.53924v23.208996c0 204.21584-134.588852 315.595696-301.716949 315.595696s-301.716949-111.379856-301.716949-315.595696v-32.539246c0-9.33025 0-13.878746 4.665124-18.543871 18.660499-190.337094 143.919101-375.892434 297.051825-375.892434S820.364758 203.109778 838.908629 388.665119c4.665125 9.33025 4.665125 13.878746 4.665125 18.543871v9.33025z m-278.507953-78.957238V476.835979c143.919101-4.665125 222.759711-41.752867 232.089961-64.961864v-4.665125c-9.213622-27.874121-88.17086-64.961863-232.089961-69.626988z m-273.7262 64.961863v9.33025c9.33025 23.208996 88.17086 60.296739 227.424836 64.961864v-139.253977c-134.70548 4.665125-218.211215 41.752867-227.424836 64.961863z m501.151036 69.626989c-51.083117 27.874121-139.253977 46.417992-227.424836 46.417992V708.92594c130.040355-9.33025 218.211215-102.166234 227.424836-236.755086z m-273.842828 236.755086v-185.671969c-88.17086-4.665125-176.341719-18.543871-227.424836-46.417992 13.995375 129.923727 97.501109 218.211215 227.424836 232.089961z m-218.094587-371.343938c51.083117-27.874121 134.588852-41.752867 218.094587-46.417992v-232.089961c-97.384481 18.660499-185.555341 139.253977-218.094587 278.507953z m264.512579-278.391325v232.089961c83.505735 0 167.128098 18.543871 218.094586 46.417992-27.757493-143.919101-120.593477-259.964082-218.094586-278.507953zM1054.787281-120.533258H789.80819c-13.06235 0-22.392599 9.33025-22.392599 22.392599s11.1963 22.392599 22.392599 22.3926h240.720442V136.981634c0 13.06235 11.1963 22.392599 22.3926 22.392599 13.06235 0 22.392599-9.33025 22.392599-22.392599v-235.122293c1.86605-13.06235-7.4642-22.392599-20.52655-22.392599z m-0.933024 719.828764c-13.06235 0-22.392599 9.33025-22.3926 22.392599V843.748048h-242.586492c-13.06235 0-22.392599 9.33025-22.392599 22.392599s11.1963 22.392599 22.392599 22.392599H1051.988207c13.06235 0 22.392599-9.33025 22.392599-22.392599v-244.452542c1.86605-13.06235-7.4642-22.392599-20.526549-22.392599zM270.579795 843.748048H54.118002v-222.059943c0-13.06235-11.1963-22.392599-22.392599-22.392599-13.06235 0-22.392599 9.33025-22.392599 22.392599V866.140647C9.332804 879.202996 20.529103 888.533246 31.725403 888.533246h240.720442c13.06235 0 22.392599-9.33025 22.392599-22.392599s-11.1963-22.392599-24.258649-22.392599zM29.859353 161.240283c13.06235 0 22.392599-9.33025 22.392599-22.392599v-212.729693H270.579795c13.06235 0 22.392599-9.33025 22.392599-22.3926S281.776095-118.667208 270.579795-118.667208H29.859353c-13.06235 0-22.392599 9.33025-22.392599 22.392599v233.256243c0 13.06235 9.33025 24.258649 22.392599 24.258649z m1024.927928-289.237741H789.80819a29.856799 29.856799 0 1 0 0 59.713599h233.256243v205.265493a29.856799 29.856799 0 1 0 59.713598 0v-235.122293c1.86605-16.794449-11.1963-29.856799-27.99075-29.856799z m14.9284 264.979092a14.9284 14.9284 0 1 1-29.856799 0v-220.193893H789.80819a14.9284 14.9284 0 1 1 0-29.856799h263.113042a14.718469 14.718469 0 0 1 14.928399 14.928399V136.981634z m-15.861424 454.849672a29.471926 29.471926 0 0 0-29.856799 29.856799v214.595743H788.875165a29.471926 29.471926 0 0 0-29.856799 29.856799A29.471926 29.471926 0 0 0 788.875165 895.997446H1051.988207c18.660499 0 31.722849-13.06235 31.722849-29.856799v-244.452542a29.471926 29.471926 0 0 0-29.856799-29.856799z m14.928399 274.309341a14.718469 14.718469 0 0 1-14.928399 14.928399H788.875165a14.718469 14.718469 0 0 1-14.928399-14.928399 14.718469 14.718469 0 0 1 14.928399-14.9284h248.184642v-229.524142a14.9284 14.9284 0 1 1 29.856799 0V866.140647zM270.579795 836.283848H61.582202v-214.595743a29.471926 29.471926 0 0 0-29.856799-29.856799 29.471926 29.471926 0 0 0-29.856799 29.856799V866.140647C0.002554 882.935096 13.064904 895.997446 29.859353 895.997446H270.579795a29.471926 29.471926 0 0 0 29.856799-29.856799c1.86605-16.794449-13.06235-29.856799-29.856799-29.856799z m0 44.785198H29.859353a14.718469 14.718469 0 0 1-14.928399-14.928399v-244.452542A14.718469 14.718469 0 0 1 29.859353 606.759705a14.718469 14.718469 0 0 1 14.9284 14.9284V851.212247H270.579795a14.718469 14.718469 0 0 1 14.9284 14.9284c1.86605 9.33025-5.59815 14.9284-14.9284 14.928399zM29.859353 166.838433a29.471926 29.471926 0 0 0 29.856799-29.856799v-205.265493H270.579795a29.856799 29.856799 0 1 0 0-59.713599H29.859353A29.471926 29.471926 0 0 0 0.002554-98.140659V136.981634a29.471926 29.471926 0 0 0 29.856799 29.856799zM14.930954-98.140659a14.718469 14.718469 0 0 1 14.928399-14.928399H270.579795a14.9284 14.9284 0 1 1 0 29.856799H46.653803V136.981634A14.718469 14.718469 0 0 1 31.725403 151.910033a14.718469 14.718469 0 0 1-14.928399-14.928399v-235.122293z"  horiz-adv-x="1083" />

    
    <glyph glyph-name="duibi" unicode="&#58981;" d="M923.78 558.39A447.63 447.63 0 0 1 512 832c-247.52-0.54-448-200.9-448-448s200.48-447.46 448-448a448.23 448.23 0 0 1 411.78 622.39zM782.53 112.46A381.47 381.47 0 0 0 512 0V768a384 384 0 0 0 270.53-655.54z"  horiz-adv-x="1024" />

    
    <glyph glyph-name="add" unicode="&#58902;" d="M466.488889 418.133333H273.066667a45.511111 45.511111 0 1 1 0-91.022222h193.422222v-193.422222a45.511111 45.511111 0 1 1 91.022222 0V327.11111100000005H750.933333a45.511111 45.511111 0 1 1 0 91.022222h-193.422222v193.422223a45.511111 45.511111 0 1 1-91.022222 0V418.133333z m45.511111-546.133333C229.239467-128 0 101.23946699999999 0 384S229.239467 896 512 896 1024 666.760533 1024 384 794.760533-128 512-128z"  horiz-adv-x="1024" />

    
    <glyph glyph-name="kaoherenwujihua" unicode="&#58957;" d="M406.016 525.312h231.936V486.4H406.016v38.912z m0-154.624H522.24v-38.912H406.016v38.912z m0-155.136h38.912v-38.912h-38.912v38.912zM240.64 478.72l27.136-27.136 27.136 27.136 54.272 54.272-27.136 27.136-54.272-54.272-27.136 27.136-27.136-27.136 27.136-27.136z m27.136-127.488l-27.136 27.136-27.136-27.136 27.136-27.136 27.136-27.136 27.136 27.136 54.272 54.272-27.136 27.136-54.272-54.272zM322.048 250.88l-54.272-54.272-27.136 27.136-27.136-27.136 27.136-27.136 27.136-27.136 27.136 27.136 54.272 54.272-27.136 27.136zM756.224 783.36h-118.784c0 18.432-15.36 33.28-33.792 33.28H315.392c-18.944 0-33.792-14.848-33.792-33.28H145.408c-37.376 0-68.096-29.696-68.096-66.56v-698.88c0-36.864 30.208-66.56 68.096-66.56h164.352c18.432 0 33.28 14.848 33.28 33.28s-14.848 33.28-33.28 33.28H179.712c-18.432 0-33.792 14.848-33.792 33.28V683.52c0 18.432 15.36 33.28 33.792 33.28H281.6v-33.28c0-18.432 15.36-33.28 33.792-33.28h288.256c18.944 0 33.792 14.848 33.792 33.28V716.8h84.992c18.944 0 33.792-14.848 33.792-33.28v-180.736c0-18.944 15.36-33.792 33.792-33.792 18.944 0 33.792 15.36 33.792 33.792V716.8c0 36.864-30.208 66.56-67.584 66.56zM681.472 129.536c57.344 0 132.608 76.288 132.608 173.056s-48.128 135.168-132.608 135.168-135.168-36.864-135.168-135.168c0.512-96.256 77.824-173.056 135.168-173.056z m262.656-126.464c-6.656 18.432-14.336 36.352-21.504 44.032-13.824 14.848-94.208 57.344-129.536 75.776-9.216 4.608-20.992 1.536-25.6-7.68l-40.448-74.752c-5.632-10.752-21.504-7.68-23.04 4.096-0.512 2.56 0 5.12 1.536 7.168l8.704 16.896c2.56 4.608 1.536 9.728-1.536 13.824l-16.896 20.48c-6.656 8.192-18.944 9.216-27.136 2.56-1.024-0.512-1.536-1.536-2.56-2.56l-16.896-20.48c-3.072-4.096-3.584-9.216-1.536-13.824l8.704-16.896c1.024-2.048 1.536-5.12 1.536-7.168-1.536-11.776-17.408-14.848-23.04-4.096l-40.448 74.752c-5.12 9.216-16.384 12.8-25.6 7.68-35.328-18.432-115.2-60.928-129.536-75.776-7.68-8.192-15.36-26.112-21.504-44.032-8.704-25.088 9.728-51.2 36.352-51.2h454.144c26.112 0 44.544 26.112 35.84 51.2z"  horiz-adv-x="1024" />

    
    <glyph glyph-name="bofangguanli" unicode="&#58884;" d="M281.6-128c-32 0-64 6.4-96 19.2-89.6 38.4-147.2 121.6-147.2 211.2V665.6c0 83.2 44.8 153.6 115.2 192C224 896 307.2 896 377.6 857.6L864 576c102.4-57.6 121.6-121.6 121.6-160 0-38.4-19.2-96-102.4-140.8l-32 57.6c32 19.2 70.4 51.2 70.4 89.6 0 32-32 70.4-89.6 102.4L339.2 806.4c-44.8 25.6-108.8 25.6-160 0-51.2-32-76.8-83.2-76.8-140.8v-563.2c0-64 44.8-121.6 108.8-147.2 70.4-32 153.6-12.8 224 51.2l44.8-44.8c-64-57.6-128-89.6-198.4-89.6zM729.6 307.2l96-57.6h6.4v-32c0-19.2 6.4-38.4 19.2-51.2l25.6-25.6v-6.4l-19.2-108.8v-6.4l-32-12.8c-19.2-6.4-38.4-25.6-44.8-44.8l-12.8-12.8h-6.4l-108.8-12.8-12.8 19.2c-12.8 19.2-38.4 32-64 38.4h-25.6V0l-44.8 96 19.2 19.2c19.2 19.2 25.6 51.2 12.8 76.8l-6.4 19.2 76.8 70.4 25.6-12.8c6.4-6.4 19.2-6.4 25.6-6.4 12.8 0 32 6.4 44.8 12.8l25.6 32m-6.4 32s-6.4 0 0 0l-38.4-25.6c-6.4-6.4-19.2-6.4-25.6-6.4h-12.8l-38.4 19.2c-6.4 0-19.2-6.4-25.6-12.8l-76.8-70.4c-6.4-6.4-12.8-12.8-12.8-25.6l12.8-32c6.4-12.8 0-32-6.4-44.8l-25.6-25.6c0-12.8 0-19.2 6.4-32l44.8-96c6.4-6.4 12.8-19.2 19.2-19.2H576c19.2 0 32-12.8 44.8-25.6l19.2-25.6c6.4-6.4 12.8-6.4 25.6-6.4h6.4l108.8 12.8c12.8 0 19.2 6.4 25.6 12.8l12.8 32c6.4 12.8 12.8 19.2 25.6 25.6l38.4 12.8c6.4 6.4 12.8 12.8 12.8 25.6l19.2 108.8c0 12.8 0 19.2-6.4 32l-38.4 19.2c-6.4 6.4-12.8 12.8-12.8 25.6v44.8c-6.4 6.4-12.8 19.2-19.2 19.2l-96 51.2c-6.4 6.4-12.8 6.4-19.2 6.4zM691.2 179.2c32 0 64-25.6 64-64s-25.6-64-64-64-64 25.6-64 64 25.6 64 64 64m0 32c-51.2 0-96-44.8-96-96s44.8-96 96-96 96 44.8 96 96-44.8 96-96 96z"  horiz-adv-x="1024" />

    
    <glyph glyph-name="tupian" unicode="&#58942;" d="M812.6 728.5H210.8c-80.9 0-146.7-65.8-146.7-146.7v-394.4c0-80.9 65.8-146.7 146.7-146.7h601.8c80.9 0 146.7 65.8 146.7 146.7V581.8c0 80.9-65.8 146.7-146.7 146.7z m-106-140.3c26.1 0 47.3-21.2 47.3-47.3s-21.2-47.3-47.3-47.3c-26.1 0-47.3 21.2-47.3 47.3s21.1 47.3 47.3 47.3z m87.6-381.8c-14-11.8-34.9-10-46.7 3.9l-107.4 127-122.8-109.8c-7.5-6.7-17.7-9.7-27.6-8-9.9 1.7-18.6 7.8-23.4 16.6l-90 161.8-135.6-208c-6.3-9.7-17-15-27.8-15-6.2 0-12.5 1.7-18.1 5.4-15.3 10-19.6 30.5-9.6 45.8l165.6 254c6.3 9.7 17.3 15.4 28.9 15 11.6-0.4 22.1-6.9 27.8-17L504 304.5l117.4 104.9c6.7 6 15.6 9 24.4 8.3 8.9-0.6 17.2-4.8 23-11.7l129.4-153c11.7-13.9 10-34.8-4-46.6z"  horiz-adv-x="1024" />

    
    <glyph glyph-name="liaotian" unicode="&#59226;" d="M849.48264 865.742943H174.503034c-92.374689 0-167.530239-75.15555-167.53024-167.529216v-417.515258c0-92.386969 75.15555-167.529216 167.53024-167.529216h295.410513c35.506608-68.378207 87.583579-121.568533 155.201471-158.413623 67.054051-36.521725 132.500492-47.145669 160.441811-51.682999 3.396346-0.535188 6.792693-0.81762 10.159364-0.81762 23.516553 0 45.481776 13.133086 56.402478 34.619402 12.440309 24.544973 7.621569 54.345637-11.976752 73.676876-34.703314 34.266363-54.527785 66.05326-68.082471 102.616941h77.424215c92.386969 0 167.544566 75.142247 167.544566 167.529216V698.213727c-0.001023 92.373666-75.15862 167.529216-167.545589 167.529216z m104.266507-585.044474c0-57.360291-46.920542-104.251157-104.266507-104.251157H692.308238c-0.196474-3.226478-1.070376-6.509238-0.379645-9.736739 16.724883-80.017268 40.508518-138.716041 103.77225-201.177503-61.883295 10.032474-217.211656 39.100452-285.152912 210.913219H174.503034c-57.331638 0-104.252181 46.890866-104.252181 104.251157V698.213727c0 57.360291 46.920542 104.278786 104.252181 104.278786h674.979606c57.345965 0 104.266507-46.919519 104.266507-104.278786v-417.515258zM833.378902 335.790095H676.993468c-11.652364 0-21.079042-9.439981-21.079042-21.078019 0-11.653388 9.426678-21.092345 21.079042-21.092345H833.378902c11.652364 0 21.105648 9.439981 21.105649 21.092345 0 11.639061-9.453284 21.078019-21.105649 21.078019zM572.742311 335.790095H188.536627c-11.638038 0-21.079042-9.439981-21.079042-21.078019 0-11.653388 9.441004-21.092345 21.079042-21.092345h384.205684c11.638038 0 21.092345 9.439981 21.092345 21.092345 0 11.639061-9.454307 21.078019-21.092345 21.078019zM833.378902 453.569333H398.984243c-11.638038 0-21.092345-9.441004-21.092345-21.092345s9.454307-21.092345 21.092345-21.092346H833.378902c11.652364 0 21.105648 9.441004 21.105649 21.092346s-9.453284 21.092345-21.105649 21.092345zM188.536627 411.383619h109.085246c11.638038 0 21.106671 9.441004 21.106672 21.092345s-9.468633 21.092345-21.106672 21.092346H188.536627c-11.638038 0-21.079042-9.441004-21.079042-21.092346s9.441004-21.092345 21.079042-21.092345zM833.378902 571.333221H590.129272c-11.653388 0-21.092345-9.454307-21.092345-21.106671 0-11.638038 9.439981-21.092345 21.092345-21.092345h243.24963c11.652364 0 21.105648 9.454307 21.105649 21.092345 0 11.652364-9.453284 21.106671-21.105649 21.106671zM188.536627 529.134205h262.580869c11.639061 0 21.079042 9.454307 21.079042 21.092345 0 11.652364-9.439981 21.106671-21.079042 21.106671H188.536627c-11.638038 0-21.079042-9.454307-21.079042-21.106671 0-11.638038 9.441004-21.092345 21.079042-21.092345zM833.378902 689.111436H676.993468c-11.652364 0-21.079042-9.441004-21.079042-21.092345s9.426678-21.106671 21.079042-21.106671H833.378902c11.652364 0 21.105648 9.454307 21.105649 21.106671s-9.453284 21.092345-21.105649 21.092345zM188.536627 646.911396h366.8177c11.654411 0 21.107695 9.454307 21.107695 21.106672s-9.453284 21.092345-21.107695 21.092345H188.536627c-11.638038 0-21.079042-9.441004-21.079042-21.092345s9.441004-21.106671 21.079042-21.106672z"  horiz-adv-x="1024" />

    
    <glyph glyph-name="tuichudenglu" unicode="&#58910;" d="M785.3 742.1c31.6-22.5 59.7-47.9 84.3-76.4 24.6-28.4 45.6-59.2 63.2-92.2s30.9-67.9 40-104.8c9.1-36.9 13.7-74.3 13.7-112.2 0-65.3-12.5-126.6-37.4-183.8-24.9-57.2-58.6-107.1-101.1-149.6-42.5-42.5-92.3-76.2-149.6-101.1-57.2-24.9-118.5-37.4-183.8-37.4-64.6 0-125.5 12.5-182.7 37.4-57.2 24.9-107.3 58.6-150.1 101.1-42.8 42.5-76.5 92.3-101.1 149.6C56.1 230 43.9 291.3 43.9 356.6c0 37.2 4.4 73.7 13.2 109.5C65.8 502 78.3 536 94.4 568.3c16.1 32.3 36.2 62.5 60 90.6 23.9 28.1 50.6 53.4 80 75.8 15.5 11.2 32.1 15.4 50 12.6 17.9-2.8 32.5-11.6 43.7-26.3 11.2-14.7 15.5-31.2 12.6-49.5-2.8-18.3-11.6-33-26.3-44.2-44.2-32.3-78.1-72-101.6-119s-35.3-97.6-35.3-151.7c0-46.3 8.8-90.1 26.3-131.1 17.6-41.1 41.6-76.9 72.1-107.4s66.4-54.8 107.4-72.7c41.1-17.9 84.8-26.9 131.1-26.9s90.1 9 131.1 26.9c41.1 17.9 76.9 42.1 107.4 72.7 30.5 30.5 54.8 66.4 72.7 107.4 17.9 41.1 26.9 84.8 26.9 131.1 0 54.8-12.6 106.5-37.9 155.3-25.3 48.8-60.7 89-106.4 120.6-15.4 10.5-24.8 24.9-27.9 43.2-3.2 18.3 0.5 35.1 11.1 50.6 10.5 14.7 24.9 23.7 43.2 26.9 18.4 3.1 35.3-0.6 50.7-11.1zM514.6 353.4c-18.3 0-33.9 6.5-46.9 19.5s-19.5 28.6-19.5 46.9V820c0 18.3 6.5 34.1 19.5 47.4 13 13.3 28.6 20 46.9 20 19 0 34.9-6.7 47.9-20S582 838.3 582 820v-400.2c0-18.3-6.5-33.9-19.5-46.9-12.9-13-28.9-19.5-47.9-19.5z m0 0"  horiz-adv-x="1024" />

    
    <glyph glyph-name="guanbi-yanjing" unicode="&#59107;" d="M94.4 246.4c-3.2 0-8 0-11.2 1.6-16 6.4-25.6 24-19.2 41.6l65.6 180.8c6.4 16 24 25.6 41.6 19.2 16-6.4 25.6-24 19.2-41.6l-65.6-180.8c-4.8-12.8-17.6-20.8-30.4-20.8z m267.2-107.2h-4.8c-17.6 3.2-28.8 19.2-25.6 36.8l33.6 188.8c3.2 17.6 19.2 28.8 36.8 25.6 17.6-3.2 28.8-19.2 25.6-36.8l-33.6-188.8c-3.2-14.4-17.6-25.6-32-25.6z m300.8 0c-16 0-28.8 11.2-32 27.2l-33.6 188.8c-3.2 17.6 8 33.6 25.6 36.8 17.6 3.2 33.6-8 36.8-25.6L694.4 176c3.2-17.6-8-33.6-25.6-36.8h-6.4z m267.2 107.2c-12.8 0-25.6 8-30.4 20.8L833.6 448c-6.4 16 3.2 35.2 19.2 41.6 16 6.4 35.2-3.2 41.6-19.2L960 289.6c6.4-16-3.2-35.2-19.2-41.6-3.2 0-8-1.6-11.2-1.6zM512 320C128 320 8 584 3.2 595.2c-6.4 16 0 35.2 16 41.6 16 6.4 35.2 0 41.6-16C65.6 611.2 171.2 384 512 384c340.8 0 446.4 227.2 451.2 236.8 6.4 16 25.6 24 41.6 16 16-6.4 24-25.6 16-41.6C1016 584 896 320 512 320z"  horiz-adv-x="1024" />

    
    <glyph glyph-name="shebei" unicode="&#58894;" d="M343.04 571.04h38.56v-98.4h-38.56zM420.16 571.04h38.56v-98.4h-38.56zM497.28 571.04h38.56v-98.4h-38.56zM574.4 571.04h38.56v-98.4H574.4zM651.52 571.04h38.56v-98.4h-38.56zM204.48 354.88v-295.52A58.88 58.88 0 0 1 262.56 0h507.84a59.04 59.04 0 0 1 58.24 59.36V640a59.04 59.04 0 0 1-58.24 59.52H736V768h-99.36v-68.8H391.2V768h-98.56v-68.8h-30.08a58.88 58.88 0 0 1-58.08-59.2v-248m314.72-311.04l-26.56 28.64a40.8 40.8 0 0 0 53.92 0z m52 52.32s-49.44 55.04-102.56 0l-22.88 23.36s70.08 78.08 148.32 0z m37.76 39.68a120.64 120.64 0 0 1-178.72 0l-24 24s106.24 113.6 225.92 0z m45.28 45.12s-120.32 129.76-268 0l-24.32 24.96s142.56 162.08 315.2 0z m74.88 226.08a22.56 22.56 0 0 0-22.24-22.72H326.24A22.56 22.56 0 0 0 304 444.16V610.08a22.56 22.56 0 0 0 22.4 22.72h380.48a22.56 22.56 0 0 0 22.24-22.72z"  horiz-adv-x="1024" />

    
    <glyph glyph-name="xunluoguanli" unicode="&#58901;" d="M264.54 631.122c-126.338 0-228.89-106.193-228.89-236.901 0-117.843 163.719-300.01 196.244-336.66 32.526-36.652 32.526-36.652 65.536 0 32.526 37.015 196.244 218.817 196.244 336.175 0.122 131.193-102.916 237.386-229.133 237.386z m-2.062-354.259c-62.38 0-112.99 51.822-112.99 115.78s50.73 115.78 112.99 115.78 112.989-51.821 112.989-115.78c0.485-63.958-50.609-115.78-112.99-115.78z m478.17 135.077c23.302 26.093 138.718 154.86 138.718 238.114 0 92.479-72.818 167.724-162.02 167.724s-162.02-75.245-162.02-167.724c0-83.619 115.78-212.385 138.718-238.114 22.938-25.729 22.938-25.729 46.604 0zM635.79 649.205c0 45.39 35.802 82.041 79.978 82.041s79.979-37.016 79.979-82.041c0-45.39-35.802-82.042-79.979-82.042-44.297 0-79.978 36.652-79.978 82.042zM970.388 207.2c-16.505 34.588-50.244 64.322-100.974 88.473-44.298 21.36-91.265 33.375-115.416 38.958-2.792 0.85-6.068 1.213-8.86 1.578-18.447 3.64-26.093 6.432-29.37 10.8-4.369 6.433-11.65 10.438-19.296 10.438h-2.063c-19.297 0-30.948-22.088-20.147-38.23 4.855-7.281 11.287-13.713 18.933-18.446 14.078-9.224 30.22-12.015 43.084-14.443 2.791-0.364 5.218-0.85 7.282-1.577 22.088-4.855 65.171-16.142 104.978-35.438 39.443-18.933 65.9-41.385 77.187-65.172 9.71-19.661 8.496-41.87-3.276-66.386-1.214-2.791-3.277-5.582-5.22-8.495l-12.014-15.656-0.364-0.364c-12.5-16.87-64.808-56.313-147.213-70.755-49.031-8.495-101.703-6.796-156.437 4.37-60.682 12.5-124.276 37.015-189.448 73.181-11.65 6.432-25.729 2.063-32.161-9.223l-0.85-1.214c-6.796-12.015-2.427-27.307 9.224-34.224 69.177-38.594 137.504-65.172 203.04-78.4 34.589-7.283 68.813-10.802 101.702-10.802 24.88 0 49.031 2.063 72.818 6.068 43.084 7.282 84.105 21.724 118.693 41.385 26.093 14.927 48.303 33.01 59.954 48.666l12.014 15.656c4.37 5.583 7.646 11.651 10.438 17.72 19.418 39.928 20.146 76.943 3.762 111.532"  horiz-adv-x="1024" />

    
    <glyph glyph-name="youxiang" unicode="&#59013;" d="M859.614 623.709c0-19.553-6.517-39.107-19.553-58.66-13.036-19.553-28.244-34.761-47.797-47.797-97.766-67.35-158.599-108.63-182.497-126.01-2.173-2.173-8.69-6.518-17.381-10.863-8.69-6.518-15.208-10.863-21.726-15.208l-19.553-13.036c-6.518-4.345-15.209-8.69-21.726-10.863-6.518-2.172-13.036-4.345-19.554-4.345-6.517 0-13.035 2.173-19.553 4.345-8.69 2.173-15.208 6.518-21.726 10.863l-19.553 13.036c-6.518 4.345-13.036 8.69-21.726 15.208-8.69 6.518-13.036 10.863-17.38 10.863-34.762 23.898-67.351 47.797-102.112 71.695-43.452 30.417-71.696 49.97-80.386 54.315-13.036 10.863-28.244 26.071-41.28 45.625-15.208 19.553-21.725 36.934-21.725 52.142 0 21.726 4.345 36.934 15.208 49.97 10.863 13.035 26.07 19.553 45.624 19.553H796.61c17.38 0 30.416-6.518 43.452-17.381 13.036-10.863 19.553-26.071 19.553-43.452z m0-112.975v-308.507c0-17.381-6.517-32.59-17.38-43.452-13.036-13.036-26.071-17.38-43.452-17.38H227.39c-17.38 0-32.589 6.517-43.452 17.38-13.036 13.035-17.38 26.071-17.38 43.452V510.734c10.862-13.035 23.898-23.898 39.106-34.761 93.421-63.005 158.599-108.63 193.36-134.7 10.863-8.69 23.899-17.381 36.934-26.072 8.69-6.517 21.726-13.035 36.934-19.553 15.209-6.518 30.417-8.69 43.452-8.69 13.036 0 28.244 2.172 43.452 8.69 15.208 6.518 28.244 13.036 36.934 19.553 13.036 8.69 23.898 17.381 36.934 26.071 43.452 32.59 108.63 76.041 193.36 134.7 8.69 10.864 21.726 21.727 32.59 34.762z"  horiz-adv-x="1024" />

    
    <glyph glyph-name="lanya" unicode="&#59201;" d="M792.8 547.1c9.5-46.6 14.3-100.9 14.3-163.2 0-62.2-4.8-116.6-14.3-163.2-9.5-46.6-22.5-84.8-39.1-114.7-16.5-29.9-37.5-54.1-62.7-72.6s-52.3-31.4-81-38.6c-28.7-7.3-61.4-10.9-98-10.9s-69.3 3.7-98 10.9c-28.7 7.3-55.8 20.2-81 38.6-25.3 18.5-46.2 42.6-62.7 72.6-16.5 29.9-29.6 68.2-39.1 114.7-9.5 46.6-14.3 100.9-14.3 163.2 0 62.2 4.8 116.6 14.3 163.2 9.5 46.6 22.5 84.8 39.1 114.7s37.5 54.1 62.7 72.6c25.3 18.4 52.3 31.4 81 38.6 28.7 7.3 61.4 11 98 11s69.3-3.7 98-10.9c28.7-7.3 55.8-20.2 81-38.6 25.3-18.5 46.2-42.6 62.7-72.6s29.5-68.2 39.1-114.8zM486.1 40.2l207.1 207.2L556.6 384l136.6 136.6-207.1 207.2V455L372.3 568.8l-41.5-41.5L473.7 384 330.8 240.7l41.5-41.5L486.1 313v-272.8z m58 546.5l66.5-66.5-66.1-66.1-0.4 132.6z m0.5-272.8l66.1-66.1-66.5-66.5 0.4 132.6z"  horiz-adv-x="1024" />

    
    <glyph glyph-name="dingwei" unicode="&#59083;" d="M505.24 896C332.328 896 191.832 755.504 191.832 579.88c0-172.912 170.216-391.768 316.112-570.088 143.2 181.024 316.12 394.472 316.12 570.088C821.36 755.504 680.864 896 505.24 896z m0-524.16C389.064 371.84 297.2 466.4 297.2 579.88c0 116.184 94.568 208.04 208.04 208.04 116.184 0 208.04-94.568 208.04-208.04C716 463.704 621.424 371.84 505.24 371.84z m0 0M386.4 579.88c0-32.416 13.504-62.144 35.12-83.76s54.04-35.12 83.76-35.12c32.424 0 62.144 13.504 83.76 35.12s35.128 54.04 35.128 83.76c0 32.424-13.512 62.144-35.128 83.76s-54.04 35.128-83.76 35.128c-32.416 0-62.136-13.504-83.76-35.128S386.4 612.304 386.4 579.88zM508-128c-202.64 0-408 64.848-408 186.4 0 67.544 67.544 124.28 186.4 159.408 21.6 5.4 43.2-5.408 48.632-27.016s-5.408-43.2-27.016-48.632c-89.16-24.32-129.688-59.44-129.688-83.76 0-43.2 129.688-108.08 332.328-108.08s332.32 64.88 332.32 108.08c0 24.312-48.632 62.136-137.792 86.456-21.6 5.408-32.424 27.016-27.016 48.632s27.016 32.424 48.632 27.016C851.08 188.12 924 128.672 924 58.4c-8.104-121.6-213.448-186.4-416.088-186.4z m0 0"  horiz-adv-x="1024" />

    
    <glyph glyph-name="xunluo" unicode="&#59031;" d="M1019.904 115.2c-4.096 22.528-11.776 44.544-23.04 65.024-14.848 26.624-35.328 49.664-59.904 67.072-35.84 26.112-77.312 38.912-122.88 38.912h-1.024c-13.312 0-26.624-2.56-39.424-4.608h-0.512c-33.28-6.144-64.512-21.504-92.16-45.568-24.064-20.48-41.984-45.056-53.76-72.192-11.264-25.6-16.896-50.176-17.408-74.752v-2.56c-0.512 0-1.024-0.512-2.048-0.512l-6.144-1.536c-37.888-9.216-77.312-18.944-116.736-22.528l-5.632-0.512c-18.432-1.536-37.888-3.584-56.832-4.096-10.24 0-19.968 1.024-30.72 2.048-4.096 0.512-7.68 1.024-11.776 1.024-20.48 2.048-40.448 7.68-58.368 17.408-13.824 7.68-22.016 15.36-26.624 24.576-8.192 16.896-9.728 35.84-4.608 57.344 5.12 22.016 16.384 41.984 35.84 64 18.432 20.48 39.936 39.424 64.512 55.808 32.768 22.016 64.512 39.424 96.768 53.76 15.872 7.168 32.256 14.336 48.64 20.48 31.744 11.776 59.904 24.576 86.016 39.936 37.888 22.016 67.584 46.08 90.624 72.704 15.36 17.92 27.136 34.816 36.352 52.224 13.312 25.6 20.992 51.2 23.04 77.824 2.048 24.064 0.512 43.52-5.12 61.952-10.752 34.816-25.6 62.464-45.568 85.504-21.504 25.088-48.128 44.544-78.336 57.344-30.72 13.312-65.536 20.48-109.056 23.04h-7.168c-8.192 0-16.384-0.512-24.064-1.536L501.76 824.32c-3.584-0.512-6.656-0.512-10.24-0.512-13.312-1.024-27.136-2.048-40.96-4.608-20.992-3.584-41.472-8.192-61.952-12.8-3.072-0.512-6.656-1.536-9.728-2.048-5.12 8.192-9.728 14.336-14.848 19.968-23.04 25.6-47.104 43.52-73.728 54.784C263.168 890.368 236.544 896 208.896 896c-5.12 0-10.752 0-15.872-0.512-22.528-2.048-41.984-6.144-59.904-13.312-26.624-10.24-49.664-25.088-68.608-43.52-21.504-20.992-36.864-43.52-47.616-68.608C7.168 746.496 1.536 721.92 0.512 697.344c-0.512-23.04 2.048-46.08 8.704-68.096 8.704-28.672 22.528-53.76 40.96-74.752 16.384-18.944 33.792-33.28 52.224-44.032 28.16-16.384 58.88-25.6 90.624-28.16 17.92-1.024 35.84 0 53.76 3.584 38.912 7.68 73.728 25.6 102.912 52.736 13.824 13.312 26.112 29.184 37.376 48.128 15.36 26.624 24.064 54.272 25.6 83.456 1.024 18.432-0.512 36.864-2.56 54.272 32.768 8.192 61.952 13.312 90.112 14.848 3.584 0 7.68 0.512 11.776 0.512 8.704 0 17.408-0.512 25.6-1.024 3.072 0 6.144-0.512 9.216-0.512 19.456-1.024 38.912-5.12 57.344-12.8 15.36-6.144 28.16-14.336 39.424-24.576 13.824-12.288 24.576-27.648 34.304-48.128 10.24-21.504 12.288-42.496 6.144-64.512-6.656-25.088-19.968-48.128-40.96-70.144-13.312-14.336-30.208-27.648-52.224-41.984-23.04-14.848-47.616-27.136-72.192-36.352-37.376-13.824-76.8-29.696-113.664-50.688-21.504-12.288-44.544-26.112-70.144-43.008-27.136-17.92-52.736-39.936-77.312-68.608-16.896-19.456-30.208-39.936-39.936-61.952-16.384-36.864-20.48-75.776-12.8-116.224 4.608-23.04 14.848-44.032 31.232-62.464 17.408-19.456 39.424-34.304 67.584-45.568 30.72-11.776 65.024-18.432 102.4-18.944h7.168c15.872 0 31.744 1.024 47.104 2.048 3.584 0 6.656 0.512 10.24 0.512 14.336 1.024 27.136 2.048 39.424 3.584 14.848 2.048 31.232 5.12 47.616 8.704 16.896 3.584 33.28 7.168 50.688 11.264 5.12 1.024 9.728 2.048 14.848 3.584 8.192-18.944 17.92-35.84 29.696-50.688 17.92-23.04 40.448-41.984 67.072-55.808 22.528-11.776 47.616-19.456 74.24-22.016 7.68-1.024 15.872-1.024 23.04-1.024 14.336 0 28.672 1.536 41.984 4.608 33.28 7.168 62.464 21.504 87.04 41.984 22.528 18.944 39.424 39.424 51.712 62.976 12.8 24.064 20.48 50.688 23.04 78.848 2.56 18.432 2.048 36.864-1.024 54.272z m-82.432-35.84c-0.512-68.096-54.272-121.344-122.368-121.344-32.256 0-64 13.312-86.528 36.864-23.04 24.064-35.328 55.808-34.304 90.112 2.048 64 56.32 116.224 120.832 116.224h1.024c32.768-0.512 63.488-13.312 86.528-36.352 23.04-23.04 35.328-53.248 34.816-85.504zM328.704 685.056c-2.048-66.048-55.296-117.76-121.344-117.76h-0.512c-68.096 0.512-121.344 53.76-121.344 121.856 0 32.256 12.288 62.464 35.328 85.504s53.76 35.84 86.528 35.84h2.048c31.232 0 62.464-13.312 85.504-36.864 22.528-24.064 34.816-55.296 33.792-88.576z"  horiz-adv-x="1024" />

    
    <glyph glyph-name="shousuojiantou" unicode="&#58993;" d="M145.4 434.9l367.6-340 367.6 340c22.5 14.5 52.5 14.5 67.5 0 15-21.7 15-50.7 0-65.1L527.9-13.5c0-7.2-7.5-7.2-15-7.2s-7.5 0-15 7.2L77.7 369.8c-22.5 21.7-15 50.6 0 65.1 22.6 14.5 52.6 14.5 67.7 0zM528 319.1c0-7.2-7.5-7.2-15-7.2s-15 0-15 7.2L77.8 702.4c-22.5 21.7-15 50.6 0 65.1 22.5 14.4 52.5 14.4 67.5 0L513 427.6l367.6 347.2c22.5 14.5 52.5 14.5 67.5 0 15-21.7 15-50.7 0-65.1L528 319.1z m0 0"  horiz-adv-x="1024" />

    
    <glyph glyph-name="shousuoshangjiantou" unicode="&#58994;" d="M877.5 330.1l-367.6 340-367.6-340c-22.5-14.5-52.5-14.5-67.5 0-15 21.7-15 50.7 0 65.1L495 778.5c0 7.2 7.5 7.2 15 7.2s7.5 0 15-7.2l420.2-383.3c22.5-21.7 15-50.6 0-65.1-22.7-14.5-52.7-14.5-67.7 0zM494.8 445.9c0 7.2 7.5 7.2 15 7.2s15 0 15-7.2L945 62.6c22.5-21.7 15-50.6 0-65.1-22.5-14.4-52.5-14.4-67.5 0L509.8 337.4 142.2-9.8c-22.5-14.5-52.5-14.5-67.5 0-15 21.7-15 50.7 0 65.1l420.1 390.6z m0 0"  horiz-adv-x="1024" />

    
    <glyph glyph-name="icon-test" unicode="&#58914;" d="M512 534c-82.8 0-150-67.2-150-150s67.2-150 150-150 150 67.2 150 150-67.2 150-150 150z m0-225c-41.4 0-75 33.6-75 75s33.6 75 75 75 75-33.6 75-75-33.6-75-75-75zM887 346.4v75h-77.6c-6.8 54.6-28.4 104.6-60.8 146.2l55 55-53 53-55-55c-41.4 32.2-91.6 53.8-146.2 60.8V759h-75v-77.6c-54.6-6.8-104.6-28.4-146.2-60.8l-55 55-53-53 55-55c-32.2-41.4-53.8-91.6-60.8-146.2H137v-75h77.6c6.8-54.6 28.4-104.6 60.8-146.2l-55-55 53-53 55 55c41.4-32.2 91.6-53.8 146.2-60.8v-77.6h75v77.6c54.6 6.8 104.6 28.4 146.2 60.8l55-55 53 53-55 55c32.2 41.4 53.8 91.6 60.8 146.2h77.4zM512 159c-124 0-225 101-225 225S388 609 512 609 737 508 737 384 636 159 512 159z"  horiz-adv-x="1024" />

    
    <glyph glyph-name="tianchongxing-" unicode="&#58940;" d="M976.3 385.6c0 32.3-3.2 63.9-9.4 94.3h-0.2c-1.9 18.3-15.8 33-33.7 36l0.1 0.4c-61.4 16.3-106.6 72.2-106.6 138.7 0 12.8 1.7 25.2 4.8 37 1.7 4.5 2.6 9.4 2.6 14.5 0 14.4-7.4 27-18.6 34.3l0.4 0.5c-48.7 43-106.3 76.1-169.6 96.3l-0.1-0.3c-16.4 6.2-35 1.1-46-12.4l-0.4 0.3c-44.4-45.4-115.3-57.3-173.2-24.6-11.1 6.3-21.1 13.9-29.8 22.4-3.1 3.7-6.9 6.9-11.3 9.4-12.1 6.9-26.3 6.8-38 1.2l-0.2 0.5C284 812.4 226.8 777.6 178.9 733c-1.7-1.3-3.2-2.8-4.6-4.4-0.5-0.5-1-1-1.5-1.4l0.1-0.2c-9.2-11.3-11.9-26.9-6.4-40.8l-0.4-0.2c17.9-60.9-6.5-128.6-63.4-163-10.9-6.6-22.4-11.6-34.2-15-4.7-0.9-9.4-2.6-13.7-5.2-11.9-7.2-18.8-19.5-19.6-32.4-5-27.5-7.6-55.8-7.6-84.7 0-31.7 3.1-62.8 9.1-92.8 0.2-4.7 1.2-9.2 2.9-13.4l0.9-3.9 0.8 0.2c5.8-11.1 16.5-19.3 29.3-21.5l-0.1-0.4c61.4-16.3 106.6-72.2 106.6-138.7 0-12.8-1.7-25.2-4.8-37-1.7-4.5-2.6-9.4-2.6-14.5 0-15.1 8.2-28.2 20.3-35.3 46.1-40.3 100-71.8 159.1-91.9l0.3 0.6 2.4-1.5c17.6-9.9 39.4-5.4 51.8 9.7l0.4-0.3c44.4 45.4 115.3 57.3 173.2 24.6 11.1-6.3 21.1-13.9 29.8-22.4 3.1-3.7 6.9-6.9 11.3-9.4 12.8-7.3 27.9-6.8 39.9-0.2 60.9 21.2 116.2 54.5 162.9 97.1 16.6 10.7 23.1 31.5 16 49.4l0.4 0.2c-17.9 60.9 6.5 128.6 63.4 163 10.9 6.6 22.4 11.6 34.2 15 4.7 0.9 9.4 2.6 13.7 5.2 11.6 7 18.4 18.8 19.6 31.4 5.2 28.1 7.9 57.1 7.9 86.7zM671 337.2c0 22.6-18.3 40.9-40.9 40.9-17.8 0-32.9-11.4-38.6-27.2l-0.2 0.1c-13.3-34.7-46.9-59.3-86.2-59.3-51 0-92.3 41.3-92.3 92.3s41.3 92.3 92.3 92.3c19.2 0 37-5.9 51.8-15.9 7.4-7.4 17.7-12 29-12 22.6 0 40.9 18.3 40.9 40.9 0 12-5.1 22.7-13.3 30.2l0.5 0.5c-29.8 23.9-67.6 38.2-108.8 38.2-96.2 0-174.2-78-174.2-174.2 0-96.2 78-174.2 174.2-174.2 73.6 0 136.5 45.7 162 110.2 2.4 5.3 3.8 11.1 3.8 17.2z"  horiz-adv-x="1024" />

    
    <glyph glyph-name="yinpin" unicode="&#59018;" d="M123.5 457.5h131.3v-310.7H123.5zM769.2 457.5h131.3v-310.7H769.2zM859.8 497.2h-48.3c-7.9 0-15.4-1.6-22.5-3.9v32.4c0 125.2-101.9 227.1-227.1 227.1h-99.7c-125.2 0-227.1-101.9-227.1-227.1v-32.4c-7.1 2.3-14.6 3.9-22.5 3.9h-48.3c-40.9 0-74.2-33.3-74.2-74.2v-243c0-40.9 33.3-74.2 74.2-74.2h48.3c40.9 0 74.2 33.3 74.2 74.2V525.7c0 96.7 78.7 175.4 175.4 175.4h99.7c96.7 0 175.4-78.7 175.4-175.4V180c0-40.9 33.3-74.2 74.2-74.2h48.3c40.9 0 74.2 33.3 74.2 74.2V423c-0.1 40.9-33.3 74.2-74.2 74.2zM235.1 180c0-12.4-10.1-22.5-22.5-22.5h-48.3c-12.4 0-22.5 10.1-22.5 22.5V423c0 12.4 10.1 22.5 22.5 22.5h48.3c12.4 0 22.5-10.1 22.5-22.5v-243z m647.2 0c0-12.4-10.1-22.5-22.5-22.5h-48.3c-12.4 0-22.5 10.1-22.5 22.5V423c0 12.4 10.1 22.5 22.5 22.5h48.3c12.4 0 22.5-10.1 22.5-22.5v-243zM531.3 243.7c-1.7 0-3.3 0.1-5 0.4-10.2 1.7-18.7 8.3-22.7 17.8l-41.1 95.4-37-43.8c-8.1-9.6-19.9-15.1-32.5-15.1h-71.9V350h67.6l56.6 67.1c6.8 8.1 17 12 27.5 10.4 10.4-1.5 19.1-8.2 23.3-17.9l41.6-96.7 21.9 24c8 8.8 19.5 13.9 31.4 13.9h102.4v-51.7H595l-41.6-45.7c-5.6-6.2-13.7-9.7-22.1-9.7z"  horiz-adv-x="1024" />

    


  </font>
</defs>
</svg>
